<svg width="current" height="current" viewBox="0 0 8 8" fill="none" xmlns="http://www.w3.org/2000/svg">
<path d="M4.51872 6.48838L4.56738 6.53055L4.84782 6.77361C5.64889 7.46779 6.67334 7.84994 7.73333 7.85H7.85V7.41837L7.81584 7.38422L7.81566 7.38404C7.3417 6.90868 6.97038 6.34107 6.72471 5.71636L6.68527 5.61609L6.76771 5.54671C7.07215 5.29045 7.32627 4.97979 7.51709 4.63059L7.51719 4.6304C7.73519 4.23278 7.84964 3.78669 7.85 3.33322C7.84996 2.48275 7.45123 1.68036 6.71392 1.07473L6.80913 0.958817L6.71392 1.07473C5.99044 0.480437 5.02729 0.15 4 0.15C2.97271 0.15 2.00956 0.480437 1.28608 1.07473L1.28608 1.07473C0.548734 1.68039 0.15 2.48283 0.15 3.33333C0.15 4.18384 0.548734 4.98628 1.28608 5.59194L1.19087 5.70785L1.28608 5.59194C2.00956 6.18623 2.9727 6.51666 3.99998 6.51667L4.51872 6.48838ZM4.51872 6.48838L4.45463 6.4946M4.51872 6.48838L4.45463 6.4946M4.45463 6.4946C4.30353 6.50929 4.15181 6.51665 4 6.51667L4.45463 6.4946ZM7.46068 7.34825C7.01466 6.8497 6.67021 6.2689 6.44664 5.63842L6.40967 5.53357L6.47682 5.48203C6.47682 5.48203 6.47683 5.48203 6.47683 5.48203C7.20532 4.92296 7.61667 4.16054 7.61667 3.33333C7.61667 1.67822 5.96285 0.383333 4 0.383333C2.03715 0.383333 0.383333 1.67822 0.383333 3.33333C0.383333 4.98844 2.03715 6.28333 4 6.28333H4.00002C4.18102 6.28331 4.36186 6.2723 4.54153 6.25034L4.54159 6.25034L4.59305 6.24403L5.00064 6.59729L5.00065 6.59729C5.65582 7.16506 6.47156 7.51468 7.33454 7.59758L7.71656 7.63428L7.46068 7.34825Z" fill="black" stroke="black" stroke-width="0.3"/>
</svg>
